<?xml version="1.0" encoding="UTF-8" standalone="no"?>
<!-- Created with Inkscape (http://www.inkscape.org/) -->

<svg
   xmlns:dc="http://purl.org/dc/elements/1.1/"
   xmlns:cc="http://creativecommons.org/ns#"
   xmlns:rdf="http://www.w3.org/1999/02/22-rdf-syntax-ns#"
   xmlns:svg="http://www.w3.org/2000/svg"
   xmlns="http://www.w3.org/2000/svg"
   xmlns:sodipodi="http://sodipodi.sourceforge.net/DTD/sodipodi-0.dtd"
   xmlns:inkscape="http://www.inkscape.org/namespaces/inkscape"
   width="48pt"
   height="48pt"
   viewBox="0 0 16.933334 16.933333"
   version="1.1"
   id="svg979"
   inkscape:version="0.92.4 (5da689c313, 2019-01-14)"
   sodipodi:docname="10 - Money Bag.svg"
   inkscape:export-filename="E:\TR Design Studio Creative\Project Design\TR Creative Design\Icon Design\Project Hiring\Icon Icons\003 - Business And Finance\Send\2 - Solid\10 - Money Bag.png"
   inkscape:export-xdpi="768"
   inkscape:export-ydpi="768">
  <defs
     id="defs973">
    <pattern
       y="0"
       x="0"
       height="6"
       width="6"
       patternUnits="userSpaceOnUse"
       id="EMFhbasepattern" />
  </defs>
  <sodipodi:namedview
     id="base"
     pagecolor="#ffffff"
     bordercolor="#666666"
     borderopacity="1.0"
     inkscape:pageopacity="0.0"
     inkscape:pageshadow="2"
     inkscape:zoom="8.546875"
     inkscape:cx="32"
     inkscape:cy="32"
     inkscape:document-units="pt"
     inkscape:current-layer="layer1"
     showgrid="false"
     units="pt"
     inkscape:window-width="1366"
     inkscape:window-height="716"
     inkscape:window-x="-8"
     inkscape:window-y="-8"
     inkscape:window-maximized="1"
     inkscape:snap-bbox="true"
     inkscape:bbox-nodes="true"
     inkscape:snap-nodes="false"
     showguides="false">
    <inkscape:grid
       type="xygrid"
       id="grid1526" />
    <sodipodi:guide
       position="0.97013909,15.963209"
       orientation="56.666615,0"
       id="guide1528"
       inkscape:locked="false" />
    <sodipodi:guide
       position="0.97013909,0.97016731"
       orientation="0,56.666667"
       id="guide1530"
       inkscape:locked="false" />
    <sodipodi:guide
       position="15.963195,0.97016731"
       orientation="-56.666615,0"
       id="guide1532"
       inkscape:locked="false" />
    <sodipodi:guide
       position="15.963195,15.963209"
       orientation="0,-56.666667"
       id="guide1534"
       inkscape:locked="false" />
  </sodipodi:namedview>
  <metadata
     id="metadata976">
    <rdf:RDF>
      <cc:Work
         rdf:about="">
        <dc:format>image/svg+xml</dc:format>
        <dc:type
           rdf:resource="http://purl.org/dc/dcmitype/StillImage" />
        <dc:title></dc:title>
      </cc:Work>
    </rdf:RDF>
  </metadata>
  <g
     inkscape:label="Layer 1"
     inkscape:groupmode="layer"
     id="layer1"
     transform="translate(0,-280.06668)">
    <path
       id="path1620"
       style="color:#000000;font-style:normal;font-variant:normal;font-weight:normal;font-stretch:normal;font-size:medium;line-height:normal;font-family:sans-serif;font-variant-ligatures:normal;font-variant-position:normal;font-variant-caps:normal;font-variant-numeric:normal;font-variant-alternates:normal;font-feature-settings:normal;text-indent:0;text-align:start;text-decoration:none;text-decoration-line:none;text-decoration-style:solid;text-decoration-color:#000000;letter-spacing:normal;word-spacing:normal;text-transform:none;writing-mode:lr-tb;direction:ltr;text-orientation:mixed;dominant-baseline:auto;baseline-shift:baseline;text-anchor:start;white-space:normal;shape-padding:0;clip-rule:nonzero;display:inline;overflow:visible;visibility:visible;isolation:auto;mix-blend-mode:normal;color-interpolation:sRGB;color-interpolation-filters:linearRGB;solid-color:#000000;solid-opacity:1;vector-effect:none;fill:#000000;fill-opacity:1;fill-rule:nonzero;stroke:none;stroke-width:0.529167;stroke-linecap:round;stroke-linejoin:round;stroke-miterlimit:4;stroke-dasharray:none;stroke-dashoffset:0;stroke-opacity:1;color-rendering:auto;image-rendering:auto;shape-rendering:auto;text-rendering:auto;enable-background:accumulate"
       d="m 6.9300946,281.03777 c -0.2513199,0.0102 -0.4945875,0.0593 -0.695413,0.22348 -0.2008242,0.16422 -0.3018476,0.44452 -0.2859204,0.72302 0.01389,0.2428 0.090905,0.50953 0.2287368,0.81635 1.9824837,0.4934 5.323237,0.77372 7.025113,0.35821 0.05033,-0.0979 0.09948,-0.19617 0.137372,-0.29511 0.187346,-0.48911 0.185595,-1.06129 -0.206389,-1.45327 -0.217442,-0.21745 -0.52283,-0.23661 -0.772971,-0.19653 -0.250142,0.0401 -0.493903,0.134 -0.732879,0.23137 -0.238976,0.0973 -0.471077,0.19856 -0.665177,0.26554 -0.1941,0.067 -0.351497,0.0828 -0.380571,0.077 -0.5888594,-0.11778 -1.2655444,-0.31011 -1.9074549,-0.47193 -0.5934167,-0.10722 -1.2033953,-0.29436 -1.7444465,-0.27808 z m -0.3220725,2.54831 c 0.1274223,0.20471 0.2693217,0.42242 0.436441,0.66386 0.4683807,0.67668 0.6783476,1.09397 1.0832129,1.82333 0.058903,0.10697 0.1710775,0.17358 0.2931513,0.17417 h 0.046667 l 0.1064862,-2.34258 C 7.878574,283.8232 7.2122769,283.71368 6.6080271,283.58608 Z m 6.0779589,0.3602 c -0.600991,0.0867 -1.279188,0.11561 -1.984357,0.10455 l -0.399632,2.13159 c 0.353381,-0.23736 1.310591,-0.99854 2.101354,-1.89759 0.09781,-0.11117 0.192246,-0.22436 0.282635,-0.3385 z m -3.4409116,0.0256 -0.1051634,2.27554 h 0.4660185 l 0.4167225,-2.21901 c -0.2714573,-0.0144 -0.5462585,-0.0375 -0.7775773,-0.0565 z m 0.010557,3.62167 -0.9116608,0.003 c -1.0540805,0.46894 -2.2409723,1.32836 -2.8026835,2.4083 0.9724555,0.22132 1.7023799,1.09235 1.7023799,2.13028 0,0.59417 -0.2396148,1.13424 -0.6263968,1.52952 0.4461598,0.0675 0.7953209,0.45413 0.7953209,0.91757 0,0.3392 -0.1885641,0.63565 -0.4633896,0.79861 0.056563,0.11944 0.090702,0.25113 0.090702,0.39108 0,0.0811 -0.014182,0.15868 -0.034177,0.234 0.425215,-10e-4 1.1194924,-0.004 2.2426718,0 1.7734747,-0.0471 2.9201347,-0.67027 3.5644817,-1.62218 0.643588,-0.9508 0.796283,-2.27573 0.420009,-3.77351 -0.366748,-1.36872 -1.816281,-2.45903 -3.06297,-3.01367 h -0.06441 v 1.0063 c 7.41e-4,0.18689 -0.1509554,0.33859 -0.3378471,0.33785 -0.1861206,-3.7e-4 -0.3366045,-0.15173 -0.3358741,-0.33785 v -1.00827 z m 0.032207,2.22821 c 0.1868915,-7.4e-4 0.3385811,0.15096 0.3378471,0.33785 v 0.12427 h 0.3108981 c 0.1868924,-7.4e-4 0.3385804,0.15096 0.3378464,0.33785 -3.7e-4,0.18611 -0.151731,0.33659 -0.3378464,0.33586 H 8.9749624 v 0.59617 h 0.9616162 c 0.1858554,-7e-4 0.3371034,0.14936 0.3378464,0.33522 v 1.42566 c -3.71e-4,0.18611 -0.151734,0.33659 -0.3378464,0.33588 H 9.6256797 v 0.12617 c -3.702e-4,0.18613 -0.1517314,0.3366 -0.3378471,0.33587 -0.1850878,-7.4e-4 -0.3348517,-0.15077 -0.3352165,-0.33587 v -0.12621 H 8.6397459 c -0.1861196,7.5e-4 -0.3374874,-0.14976 -0.3378472,-0.33588 -7.403e-4,-0.18689 0.1509557,-0.33859 0.3378472,-0.33785 H 9.2878326 9.600703 v -0.74996 H 8.6397052 c -0.1868841,7.1e-4 -0.3385619,-0.15097 -0.3378472,-0.33785 v -1.26725 c -7.067e-4,-0.18689 0.1509631,-0.33857 0.3378472,-0.33785 h 0.31287 v -0.12427 c -7.402e-4,-0.18587 0.1493529,-0.33713 0.3352167,-0.33785 z m -4.2303176,0.79993 c -0.8405546,0 -1.5157095,0.67252 -1.5157095,1.51308 0,0.84055 0.6751549,1.51571 1.5157095,1.51571 0.8405545,0 1.5124229,-0.67516 1.5124242,-1.51571 -1.3e-6,-0.84056 -0.6718697,-1.51308 -1.5124242,-1.51308 z m -0.9563565,3.70185 c -0.1488976,0 -0.258972,0.10938 -0.258972,0.25831 0,0.14886 0.1100604,0.25832 0.258972,0.25832 H 6.480548 c 0.1489064,0 0.2583144,-0.10939 0.2583144,-0.25832 0,-0.14884 -0.1094117,-0.25831 -0.2583144,-0.25831 z m -0.3707118,1.1897 c -0.1488989,0 -0.2583144,0.10939 -0.2583144,0.25832 -1.3e-6,0.14885 0.1094117,0.2583 0.2583144,0.2583 h 2.3774176 c 0.1488963,0 0.2583145,-0.10939 0.2583145,-0.2583 0,-0.14885 -0.1094117,-0.25832 -0.2583145,-0.25832 z"
       inkscape:connector-curvature="0"
       sodipodi:nodetypes="cccccccccccccccccccccccccccccccccccscscscccccccccccccccccccccccccsccccccccccccccccssscssssssssscsssss" />
  </g>
</svg>
